{
	"asset":{
		"version":"2.0",
		"generator":"Created using the official Cinema 4D glTF Exporter 1.000x284978"
	},
	"bufferViews":[{
		"buffer":0,
		"byteOffset":0,
		"byteLength":21504,
		"target":34963
	},
	{
		"buffer":0,
		"byteOffset":21504,
		"byteLength":66816,
		"target":34962,
		"byteStride":32
	},
	{
		"buffer":1,
		"byteOffset":0,
		"byteLength":21192,
		"target":34963
	},
	{
		"buffer":1,
		"byteOffset":21192,
		"byteLength":65472,
		"target":34962,
		"byteStride":32
	},
	{
		"buffer":2,
		"byteOffset":0,
		"byteLength":23688,
		"target":34963
	},
	{
		"buffer":2,
		"byteOffset":23688,
		"byteLength":74880,
		"target":34962,
		"byteStride":32
	},
	{
		"buffer":3,
		"byteOffset":0,
		"byteLength":22128,
		"target":34963
	},
	{
		"buffer":3,
		"byteOffset":22128,
		"byteLength":69088,
		"target":34962,
		"byteStride":32
	},
	{
		"buffer":4,
		"byteOffset":0,
		"byteLength":22440,
		"target":34963
	},
	{
		"buffer":4,
		"byteOffset":22440,
		"byteLength":70656,
		"target":34962,
		"byteStride":32
	}],
	"scenes":[{
		"nodes":[0,
		6]
	}],
	"nodes":[{
		"name":"Null",
		"translation":[-3.829136848449707,
		39.329410552978519,
		2.6871275901794435],
		"rotation":[-0.032313380390405658,
		0.007334302179515362,
		-0.08011143654584885,
		-0.9962350130081177],
		"scale":[1.0,
		1.0,
		1.0],
		"children":[1,
		2,
		3,
		4,
		5]
	},
	{
		"name":"Spline",
		"mesh":0
	},
	{
		"name":"Spline",
		"mesh":1
	},
	{
		"name":"Spline",
		"mesh":2
	},
	{
		"name":"Spline",
		"mesh":3
	},
	{
		"name":"Spline",
		"mesh":4
	},
	{
		"name":"Camera",
		"translation":[17.0,
		22.0,
		60.0],
		"rotation":[-0.0017453284235671163,
		0.0,
		0.0,
		-0.9999984502792358],
		"scale":[1.0,
		1.0,
		1.0],
		"camera":0
	}],
	"buffers":[{
		"uri":"data:application/octet-stream;base64,",
		"byteLength":88320
	},
	{
		"uri":"data:application/octet-stream;base64,",
		"byteLength":86664
	},
	{
		"uri":"data:application/octet-stream;base64,",
		"byteLength":98568
	},
	{
		"uri":"data:application/octet-stream;base64,",
		"byteLength":91216
	},
	{
		"uri":"data:application/octet-stream;base64,",
		"byteLength":93096
	}],
	"meshes":[{
		"name":"Spline",
		"primitives":[{
			"material":0,
			"attributes":{
				"POSITION":1,
				"NORMAL":2,
				"TEXCOORD_0":3
			},
			"indices":0
		}]
	},
	{
		"name":"Spline",
		"primitives":[{
			"material":0,
			"attributes":{
				"POSITION":5,
				"NORMAL":6,
				"TEXCOORD_0":7
			},
			"indices":4
		}]
	},
	{
		"name":"Spline",
		"primitives":[{
			"material":0,
			"attributes":{
				"POSITION":9,
				"NORMAL":10,
				"TEXCOORD_0":11
			},
			"indices":8
		}]
	},
	{
		"name":"Spline",
		"primitives":[{
			"material":0,
			"attributes":{
				"POSITION":13,
				"NORMAL":14,
				"TEXCOORD_0":15
			},
			"indices":12
		}]
	},
	{
		"name":"Spline",
		"primitives":[{
			"material":0,
			"attributes":{
				"POSITION":17,
				"NORMAL":18,
				"TEXCOORD_0":19
			},
			"indices":16
		}]
	}],
	"cameras":[{
		"type":"perspective",
		"perspective":{
			"znear":0.009999999776482582,
			"zfar":10000000000.0,
			"aspectRatio":0.8777777552604675,
			"yfov":1.0355637073516846
		}
	}],
	"accessors":[{
		"bufferView":0,
		"type":"SCALAR",
		"componentType":5123,
		"count":10752,
		"max":[2087],
		"byteOffset":0,
		"min":[0]
	},
	{
		"bufferView":1,
		"type":"VEC3",
		"componentType":5126,
		"count":2088,
		"max":[16.59636688232422,
		-14.762088775634766,
		1.1332508325576783],
		"byteOffset":0,
		"min":[0.006977837532758713,
		-44.56667709350586,
		-6.276691913604736]
	},
	{
		"bufferView":1,
		"type":"VEC3",
		"componentType":5126,
		"count":2088,
		"max":[1.0,
		1.0,
		1.0],
		"byteOffset":12,
		"min":[-0.9999999403953552,
		-1.0,
		-1.0]
	},
	{
		"bufferView":1,
		"type":"VEC2",
		"componentType":5126,
		"count":2088,
		"max":[1.0,
		1.0],
		"byteOffset":24,
		"min":[0.0,
		0.0]
	},
	{
		"bufferView":2,
		"type":"SCALAR",
		"componentType":5123,
		"count":10596,
		"max":[2045],
		"byteOffset":0,
		"min":[0]
	},
	{
		"bufferView":3,
		"type":"VEC3",
		"componentType":5126,
		"count":2046,
		"max":[33.04347610473633,
		-29.09979820251465,
		1.1145789623260499],
		"byteOffset":0,
		"min":[17.578712463378908,
		-44.56455993652344,
		-6.295363903045654]
	},
	{
		"bufferView":3,
		"type":"VEC3",
		"componentType":5126,
		"count":2046,
		"max":[1.0,
		1.0,
		1.0],
		"byteOffset":12,
		"min":[-1.0,
		-1.0,
		-1.0]
	},
	{
		"bufferView":3,
		"type":"VEC2",
		"componentType":5126,
		"count":2046,
		"max":[1.0,
		1.0],
		"byteOffset":24,
		"min":[0.0,
		0.0]
	},
	{
		"bufferView":4,
		"type":"SCALAR",
		"componentType":5123,
		"count":11844,
		"max":[2339],
		"byteOffset":0,
		"min":[0]
	},
	{
		"bufferView":5,
		"type":"VEC3",
		"componentType":5126,
		"count":2340,
		"max":[26.43094825744629,
		-14.903512954711914,
		1.0959069728851319],
		"byteOffset":0,
		"min":[17.714527130126954,
		-30.508745193481447,
		-6.314035892486572]
	},
	{
		"bufferView":5,
		"type":"VEC3",
		"componentType":5126,
		"count":2340,
		"max":[0.9999805688858032,
		0.9999852180480957,
		1.0],
		"byteOffset":12,
		"min":[-1.0,
		-1.0,
		-1.0]
	},
	{
		"bufferView":5,
		"type":"VEC2",
		"componentType":5126,
		"count":2340,
		"max":[1.0,
		1.0],
		"byteOffset":24,
		"min":[0.0,
		0.0]
	},
	{
		"bufferView":6,
		"type":"SCALAR",
		"componentType":5123,
		"count":11064,
		"max":[2158],
		"byteOffset":0,
		"min":[0]
	},
	{
		"bufferView":7,
		"type":"VEC3",
		"componentType":5126,
		"count":2159,
		"max":[16.874980926513673,
		1.0995682818849395e-14,
		1.0772351026535035],
		"byteOffset":0,
		"min":[2.8161277770996095,
		-14.058778762817383,
		-6.33270788192749]
	},
	{
		"bufferView":7,
		"type":"VEC3",
		"componentType":5126,
		"count":2159,
		"max":[1.0,
		1.0,
		1.0],
		"byteOffset":12,
		"min":[-0.99998539686203,
		-0.9999995827674866,
		-1.0]
	},
	{
		"bufferView":7,
		"type":"VEC2",
		"componentType":5126,
		"count":2159,
		"max":[1.0,
		1.0],
		"byteOffset":24,
		"min":[0.0,
		0.0]
	},
	{
		"bufferView":8,
		"type":"SCALAR",
		"componentType":5123,
		"count":11220,
		"max":[2207],
		"byteOffset":0,
		"min":[0]
	},
	{
		"bufferView":9,
		"type":"VEC3",
		"componentType":5126,
		"count":2208,
		"max":[31.63749122619629,
		-1.0146024916491553e-14,
		1.058563232421875],
		"byteOffset":0,
		"min":[17.578712463378908,
		-14.058778762817383,
		-6.35137939453125]
	},
	{
		"bufferView":9,
		"type":"VEC3",
		"componentType":5126,
		"count":2208,
		"max":[1.0,
		1.0,
		1.0],
		"byteOffset":12,
		"min":[-1.0,
		-1.0,
		-1.0]
	},
	{
		"bufferView":9,
		"type":"VEC2",
		"componentType":5126,
		"count":2208,
		"max":[1.0,
		1.0],
		"byteOffset":24,
		"min":[0.0,
		0.0]
	}],
	"materials":[{
		"pbrMetallicRoughness":{
			"baseColorFactor":[0.0,
			0.23516666666666659,
			0.8300000000000001,
			1.0],
			"metallicFactor":0.05,
			"roughnessFactor":0.5
		},
		"emissiveFactor":[0.0,
		0.0,
		0.0],
		"alphaMode":"OPAQUE",
		"doubleSided":false,
		"name":"PBR.1"
	}]
}