<svg width="155" height="45" viewBox="0 0 155 45" fill="none" xmlns="http://www.w3.org/2000/svg">
<path d="M61.8906 19.1717C60.562 20.6813 58.5692 21.7469 56.1778 21.7469C52.2364 21.7469 49.0035 19.0385 49.0035 14.6429C49.0035 10.4249 52.2364 7.53897 55.8235 7.53897C57.9049 7.53897 59.8535 8.07176 61.5363 9.62575L63.1749 6.82857C61.3149 4.96378 58.5249 4.20898 55.3364 4.20898C49.4907 4.20898 45.2393 8.82656 45.2393 14.6429C45.2393 20.9477 49.5792 25.0769 55.9121 25.0769C58.9678 25.0769 61.8906 23.9225 63.5735 21.7469L61.8906 19.1717Z" fill="white"/>
<path d="M72.1773 24.6329L83.6915 9.75895V24.6329H87.2344V4.65298H83.6915L72.1773 19.5269V4.65298H68.6345V24.6329H72.1773Z" fill="white"/>
<path d="M93.6748 24.6329H97.2176V7.98296H106.296V4.65298H93.6748V24.6329Z" fill="white"/>
<path d="M111.712 24.6329H115.255V10.0698L122.43 19.3493H122.562L129.471 10.0698V24.6329H133.014V4.65298H129.87L122.607 14.5541L114.945 4.65298H111.712V24.6329Z" fill="white"/>
<path d="M141.294 8.87096C142.888 8.02736 144.35 7.40577 146.786 7.40577C150.727 7.40577 151.303 9.98095 151.303 13.7105C149.974 12.7337 147.893 12.4229 146.343 12.4229C142.047 12.4229 138.814 14.6873 138.814 18.7721C138.814 22.6349 141.294 24.9437 144.926 24.9437C148.203 24.9437 150.107 23.5673 151.303 22.0577V24.6329H154.668V12.3785C154.668 7.18377 152.676 4.20898 147.007 4.20898C144.527 4.20898 142.136 4.91938 140.364 6.02937L141.294 8.87096ZM146.166 21.7469C143.863 21.7469 142.578 20.5037 142.578 18.5945C142.578 16.2857 144.704 15.3089 146.83 15.3089C148.557 15.3089 150.063 15.7529 151.303 16.6409V19.1717C150.284 20.3705 148.778 21.7469 146.166 21.7469Z" fill="white"/>
<path d="M54.6979 34.316H53.216L51.5224 38.9571C51.3921 39.3479 51.2781 39.7225 51.1804 40.0807C51.0338 39.7062 50.9036 39.3479 50.7407 38.9734L48.5911 34.316H47.0278L50.5453 41.6441L50.3824 42.0349C49.8939 43.2074 49.4379 43.6959 48.8191 43.6959C48.526 43.6959 48.2492 43.5656 48.0049 43.4516L47.5815 44.445C47.9723 44.7056 48.412 44.901 48.9657 44.901C50.0079 44.901 50.6919 44.2659 51.7666 41.6441L54.6979 34.316Z" fill="white"/>
<path d="M61.5408 34.316H60.238V37.6543C59.9123 37.8823 59.2935 38.1103 58.5607 38.1103C57.5674 38.1103 56.9811 37.5566 56.9811 36.3842V34.316H55.5969V36.5307C55.5969 38.4197 56.4437 39.3317 58.2025 39.3317C59.0167 39.3317 59.7495 39.1037 60.238 38.7943V41.6441H61.5408V34.316Z" fill="white"/>
<path d="M69.6737 39.8202C69.2014 40.2599 68.3709 40.5856 67.4264 40.5856C65.9933 40.5856 64.9837 39.7713 64.8697 38.3872H70.5042C70.553 38.1592 70.5856 37.866 70.5856 37.5078C70.5856 35.4885 69.0711 34.1532 67.1821 34.1532C64.772 34.1532 63.4041 35.8468 63.4041 37.98C63.4041 40.2924 64.9511 41.8069 67.3287 41.8069C68.3058 41.8069 69.3643 41.4975 70.0808 40.8461L69.6737 39.8202ZM67.117 35.3745C68.3872 35.3745 69.1688 36.1236 69.234 37.3287H64.7883C64.9349 36.205 65.7817 35.3745 67.117 35.3745Z" fill="white"/>
<path d="M78.02 30.082C77.2709 31.0591 76.2613 30.6031 74.5514 31.3359C72.2227 32.313 71.8319 35.0814 71.8319 37.2472C71.8319 40.0645 73.33 41.8069 75.7076 41.8069C77.9386 41.8069 79.4693 40.097 79.4693 38.0452C79.4693 35.8468 78.1666 34.3974 76.0658 34.3974C74.8282 34.3974 73.6395 35.0814 73.1672 36.1073H73.1346C73.2323 34.7394 73.6232 33.1924 74.9911 32.5736C76.6032 31.8408 77.8246 32.313 78.7202 31.108L78.02 30.082ZM73.2161 37.4915C73.444 36.547 74.356 35.6188 75.7402 35.6188C77.2546 35.6188 78.0851 36.6773 78.0851 38.1103C78.0851 39.4782 77.1081 40.5856 75.675 40.5856C74.2257 40.5856 73.2161 39.3805 73.2161 37.4915Z" fill="white"/>
<path d="M86.712 41.6441H88.0148V34.316H86.712V37.3287H82.6409V34.316H81.3381V41.6441H82.6409V38.55H86.712V41.6441Z" fill="white"/>
<path d="M90.3709 41.6441H92.7322C95.0283 41.6441 95.7774 40.325 95.7774 39.0385C95.7774 37.7358 95.126 36.5144 92.8788 36.5144H91.6737V34.316H90.3709V41.6441ZM97.1779 41.6441H98.4806V34.316H97.1779V41.6441ZM92.6345 37.7358C93.8884 37.7358 94.3932 38.208 94.3932 39.0874C94.3932 39.9505 93.921 40.4227 92.6182 40.4227H91.6737V37.7358H92.6345Z" fill="white"/>
<path d="M102.122 41.6441L106.356 36.1887V41.6441H107.659V34.316H106.356L102.122 39.7713V34.316H100.819V41.6441H102.122ZM101.861 30.5706C101.861 31.857 102.724 32.8504 104.337 32.8504C105.802 32.8504 106.747 31.857 106.747 30.5706H105.525C105.46 31.4499 105.053 31.857 104.337 31.857C103.555 31.857 103.148 31.4499 103.083 30.5706H101.861Z" fill="white"/>
<path d="M113.685 41.6441H120.198V43.4354H121.42V40.4227H120.198V34.316H118.896V40.4227H114.987V34.316H113.685V41.6441Z" fill="white"/>
<path d="M128.61 39.8202C128.137 40.2599 127.307 40.5856 126.362 40.5856C124.929 40.5856 123.92 39.7713 123.806 38.3872H129.44C129.489 38.1592 129.522 37.866 129.522 37.5078C129.522 35.4885 128.007 34.1532 126.118 34.1532C123.708 34.1532 122.34 35.8468 122.34 37.98C122.34 40.2924 123.887 41.8069 126.265 41.8069C127.242 41.8069 128.3 41.4975 129.017 40.8461L128.61 39.8202ZM126.053 35.3745C127.323 35.3745 128.105 36.1236 128.17 37.3287H123.724C123.871 36.205 124.718 35.3745 126.053 35.3745Z" fill="white"/>
<path d="M136.663 41.6441H137.966V34.316H136.663V37.3287H132.592V34.316H131.289V41.6441H132.592V38.55H136.663V41.6441Z" fill="white"/>
<path d="M139.394 35.6188H142.081V41.6441H143.383V35.6188H146.07V34.316H139.394V35.6188Z" fill="white"/>
<path d="M147.494 44.901H148.797V41.3021C149.318 41.6441 150.083 41.8069 150.865 41.8069C153.161 41.8069 154.676 40.097 154.676 37.866C154.676 35.7002 153.373 34.1532 151.288 34.1532C150.279 34.1532 149.302 34.5929 148.797 35.1791V34.316H147.494V44.901ZM150.914 35.3745C152.428 35.3745 153.291 36.433 153.291 37.9149C153.291 39.4619 152.314 40.5856 150.751 40.5856C150.051 40.5856 149.448 40.4553 148.797 40.0156V36.3842C149.253 35.8142 150.051 35.3745 150.914 35.3745Z" fill="white"/>
<path d="M17.3552 1.38801C17.3552 0.621434 17.9767 0 18.7432 0H29.8473C30.6139 0 31.2354 0.621434 31.2354 1.38801V12.4921C31.2354 13.2587 30.6139 13.8801 29.8473 13.8801H18.7432C17.9767 13.8801 17.3552 13.2587 17.3552 12.4921V1.38801Z" fill="white"/>
<path d="M15.2724 0C16.039 0 16.6605 0.621435 16.6605 1.38801L16.6605 12.4921C16.6605 13.2587 16.039 13.8801 15.2724 13.8801C14.9323 13.8801 14.6207 13.7578 14.3793 13.5546L14.2105 13.386L3.18752 2.37013L3.18687 2.36949C2.93569 2.11831 2.78033 1.7713 2.78033 1.38801C2.78033 0.621435 3.40177 0 4.16835 0H15.2724Z" fill="white"/>
<path d="M18.8339 14.7148C18.0913 14.7148 17.4893 15.3199 17.4893 16.0663V28.7703C17.4893 29.5167 18.0913 30.1218 18.8339 30.1218C19.2037 30.1218 19.5386 29.9718 19.7817 29.729L19.8283 29.68L25.6929 23.3821C25.941 23.1369 26.0949 22.7957 26.0949 22.4183C26.0949 22.0596 25.9559 21.7335 25.7289 21.4915L25.7143 21.4761L19.8253 15.1533L19.7847 15.1107C19.5414 14.8661 19.2052 14.7148 18.8339 14.7148Z" fill="white"/>
<circle cx="24.9893" cy="36.3645" r="7.63407" fill="white"/>
<path d="M15.0205 44.0001C6.72868 44.0001 0.00683594 37.4129 0.00683594 29.2872C0.00683594 21.1614 6.72868 14.5742 15.0205 14.5742C15.7743 14.5742 16.3854 15.1731 16.3854 15.9118V42.6625C16.3854 43.4012 15.7743 44.0001 15.0205 44.0001Z" fill="white"/>
</svg>
