<svg width="148" height="45" viewBox="0 0 148 45" fill="none" xmlns="http://www.w3.org/2000/svg">
<path d="M59.2197 18.9314C57.9485 20.3758 56.0417 21.3954 53.7535 21.3954C49.9822 21.3954 46.8889 18.8039 46.8889 14.5981C46.8889 10.5622 49.9822 7.80075 53.4145 7.80075C55.4061 7.80075 57.2705 8.31055 58.8807 9.79747L60.4486 7.12102C58.6689 5.33672 55.9993 4.6145 52.9484 4.6145C47.355 4.6145 43.2871 9.03277 43.2871 14.5981C43.2871 20.6307 47.4398 24.5817 53.4992 24.5817C56.4231 24.5817 59.2197 23.4771 60.83 21.3954L59.2197 18.9314Z" fill="#0C0C22"/>
<path d="M69.0624 24.1568L80.0797 9.92492V24.1568H83.4696V5.03933H80.0797L69.0624 19.2713V5.03933H65.6725V24.1568H69.0624Z" fill="#0C0C22"/>
<path d="M89.632 24.1568H93.022V8.22558H101.709V5.03933H89.632V24.1568Z" fill="#0C0C22"/>
<path d="M106.891 24.1568H110.281V10.2223L117.146 19.1013H117.273L123.883 10.2223V24.1568H127.273V5.03933H124.265L117.315 14.5131L109.984 5.03933H106.891V24.1568Z" fill="#0C0C22"/>
<path d="M135.196 9.07525C136.721 8.26807 138.12 7.6733 140.45 7.6733C144.222 7.6733 144.773 10.1373 144.773 13.7059C143.501 12.7713 141.51 12.4739 140.027 12.4739C135.916 12.4739 132.823 14.6406 132.823 18.549C132.823 22.2451 135.196 24.4542 138.671 24.4542C141.806 24.4542 143.628 23.1372 144.773 21.6928V24.1568H147.993V12.4314C147.993 7.46089 146.086 4.6145 140.662 4.6145C138.289 4.6145 136.001 5.29423 134.306 6.35632L135.196 9.07525ZM139.857 21.3954C137.654 21.3954 136.425 20.2059 136.425 18.3791C136.425 16.17 138.459 15.2353 140.493 15.2353C142.145 15.2353 143.586 15.6602 144.773 16.5098V18.9314C143.798 20.0784 142.357 21.3954 139.857 21.3954Z" fill="#0C0C22"/>
<path d="M52.337 33.4223H50.9191L49.2986 37.8631C49.1739 38.2371 49.0649 38.5954 48.9714 38.9382C48.8311 38.5799 48.7065 38.2371 48.5507 37.8787L46.4939 33.4223H44.998L48.3637 40.4341L48.2079 40.808C47.7404 41.9299 47.3041 42.3974 46.712 42.3974C46.4316 42.3974 46.1667 42.2727 45.9329 42.1636L45.5278 43.1141C45.9018 43.3634 46.3225 43.5504 46.8523 43.5504C47.8495 43.5504 48.5039 42.9427 49.5323 40.4341L52.337 33.4223Z" fill="#0C0C22"/>
<path d="M58.8846 33.4223H57.6381V36.6166C57.3264 36.8347 56.7343 37.0529 56.0331 37.0529C55.0827 37.0529 54.5217 36.5231 54.5217 35.4012V33.4223H53.1973V35.5414C53.1973 37.3489 54.0075 38.2215 55.6904 38.2215C56.4694 38.2215 57.1706 38.0033 57.6381 37.7073V40.4341H58.8846V33.4223Z" fill="#0C0C22"/>
<path d="M66.6664 38.6889C66.2145 39.1096 65.4199 39.4213 64.5161 39.4213C63.145 39.4213 62.1789 38.6422 62.0698 37.3177H67.4611C67.5078 37.0996 67.539 36.8191 67.539 36.4763C67.539 34.5442 66.0899 33.2665 64.2824 33.2665C61.9763 33.2665 60.6675 34.887 60.6675 36.9282C60.6675 39.1408 62.1477 40.5899 64.4227 40.5899C65.3576 40.5899 66.3704 40.2938 67.056 39.6706L66.6664 38.6889ZM64.2201 34.4351C65.4355 34.4351 66.1834 35.1519 66.2457 36.3049H61.9919C62.1322 35.2298 62.9424 34.4351 64.2201 34.4351Z" fill="#0C0C22"/>
<path d="M74.6525 29.3711C73.9357 30.306 72.9697 29.8697 71.3336 30.5709C69.1054 31.5058 68.7315 34.1547 68.7315 36.227C68.7315 38.9227 70.165 40.5899 72.4399 40.5899C74.5746 40.5899 76.0393 38.9538 76.0393 36.9905C76.0393 34.887 74.7927 33.5002 72.7827 33.5002C71.5985 33.5002 70.461 34.1547 70.0092 35.1363H69.978C70.0715 33.8274 70.4455 32.3472 71.7543 31.7551C73.2969 31.0539 74.4655 31.5058 75.3225 30.3527L74.6525 29.3711ZM70.0559 36.4607C70.2741 35.557 71.1466 34.6689 72.4711 34.6689C73.9202 34.6689 74.7148 35.6817 74.7148 37.0529C74.7148 38.3617 73.7799 39.4213 72.4087 39.4213C71.022 39.4213 70.0559 38.2682 70.0559 36.4607Z" fill="#0C0C22"/>
<path d="M82.9693 40.4341H84.2159V33.4223H82.9693V36.3049H79.0739V33.4223H77.8274V40.4341H79.0739V37.4736H82.9693V40.4341Z" fill="#0C0C22"/>
<path d="M86.4703 40.4341H88.7297C90.9267 40.4341 91.6434 39.172 91.6434 37.941C91.6434 36.6945 91.0202 35.5259 88.8699 35.5259H87.7169V33.4223H86.4703V40.4341ZM92.9835 40.4341H94.23V33.4223H92.9835V40.4341ZM88.6362 36.6945C89.836 36.6945 90.319 37.1463 90.319 37.9878C90.319 38.8136 89.8671 39.2655 88.6206 39.2655H87.7169V36.6945H88.6362Z" fill="#0C0C22"/>
<path d="M97.7141 40.4341L101.765 35.2142V40.4341H103.012V33.4223H101.765L97.7141 38.6422V33.4223H96.4676V40.4341H97.7141ZM97.4648 29.8385C97.4648 31.0695 98.2906 32.02 99.8332 32.02C101.236 32.02 102.139 31.0695 102.139 29.8385H100.971C100.908 30.68 100.519 31.0695 99.8332 31.0695C99.0853 31.0695 98.6957 30.68 98.6334 29.8385H97.4648Z" fill="#0C0C22"/>
<path d="M108.778 40.4341H115.01V42.1481H116.179V39.2655H115.01V33.4223H113.764V39.2655H110.024V33.4223H108.778V40.4341Z" fill="#0C0C22"/>
<path d="M123.059 38.6889C122.607 39.1096 121.812 39.4213 120.908 39.4213C119.537 39.4213 118.571 38.6422 118.462 37.3177H123.853C123.9 37.0996 123.931 36.8191 123.931 36.4763C123.931 34.5442 122.482 33.2665 120.675 33.2665C118.369 33.2665 117.06 34.887 117.06 36.9282C117.06 39.1408 118.54 40.5899 120.815 40.5899C121.75 40.5899 122.763 40.2938 123.448 39.6706L123.059 38.6889ZM120.612 34.4351C121.828 34.4351 122.576 35.1519 122.638 36.3049H118.384C118.524 35.2298 119.335 34.4351 120.612 34.4351Z" fill="#0C0C22"/>
<path d="M130.764 40.4341H132.011V33.4223H130.764V36.3049H126.869V33.4223H125.622V40.4341H126.869V37.4736H130.764V40.4341Z" fill="#0C0C22"/>
<path d="M133.377 34.6689H135.948V40.4341H137.195V34.6689H139.766V33.4223H133.377V34.6689Z" fill="#0C0C22"/>
<path d="M141.128 43.5504H142.374V40.1069C142.873 40.4341 143.605 40.5899 144.353 40.5899C146.55 40.5899 147.999 38.9538 147.999 36.8191C147.999 34.7468 146.753 33.2665 144.758 33.2665C143.792 33.2665 142.857 33.6872 142.374 34.2482V33.4223H141.128V43.5504ZM144.4 34.4351C145.849 34.4351 146.675 35.4479 146.675 36.8659C146.675 38.3461 145.74 39.4213 144.244 39.4213C143.574 39.4213 142.998 39.2966 142.374 38.8759V35.4012C142.811 34.8558 143.574 34.4351 144.4 34.4351Z" fill="#0C0C22"/>
<path d="M16.6055 1.9155C16.6055 1.18201 17.2001 0.587402 17.9336 0.587402H28.5584C29.2919 0.587402 29.8865 1.18201 29.8865 1.9155V12.5403C29.8865 13.2738 29.2919 13.8684 28.5584 13.8684H17.9336C17.2001 13.8684 16.6055 13.2738 16.6055 12.5403V1.9155Z" fill="#1E74F8"/>
<path d="M14.6131 0.587402C15.3466 0.587402 15.9412 1.18201 15.9412 1.9155L15.9412 12.5403C15.9412 13.2738 15.3466 13.8684 14.6131 13.8684C14.2876 13.8684 13.9895 13.7513 13.7585 13.557L13.597 13.3956L3.04976 2.85523L3.04915 2.85461C2.80881 2.61428 2.66016 2.28225 2.66016 1.9155C2.66016 1.18201 3.25477 0.587402 3.98826 0.587402H14.6131Z" fill="#1E74F8"/>
<path d="M18.021 14.6665C17.3104 14.6665 16.7344 15.2455 16.7344 15.9597V28.1153C16.7344 28.8295 17.3104 29.4084 18.021 29.4084C18.3748 29.4084 18.6952 29.2649 18.9278 29.0326L18.9725 28.9857L24.5839 22.9597C24.8214 22.7251 24.9686 22.3986 24.9686 22.0375C24.9686 21.6942 24.8355 21.3822 24.6184 21.1507L24.6044 21.1359L18.9696 15.0861L18.9307 15.0453C18.6979 14.8112 18.3763 14.6665 18.021 14.6665Z" fill="#1E74F8"/>
<circle cx="23.91" cy="35.382" r="7.30456" fill="#1E74F8"/>
<path d="M14.3715 42.6887C6.43757 42.6887 0.00585938 36.3858 0.00585938 28.6108C0.00585938 20.8358 6.43757 14.533 14.3715 14.533C15.0928 14.533 15.6775 15.1059 15.6775 15.8128V41.4089C15.6775 42.1157 15.0928 42.6887 14.3715 42.6887Z" fill="#1E74F8"/>
</svg>
