<svg width="118" height="35" viewBox="0 0 118 35" fill="none" xmlns="http://www.w3.org/2000/svg">
<path d="M47.1063 14.5916C46.0951 15.7405 44.5783 16.5516 42.7581 16.5516C39.7583 16.5516 37.2977 14.4902 37.2977 11.1446C37.2977 7.93422 39.7583 5.73764 42.4885 5.73764C44.0727 5.73764 45.5558 6.14316 46.8366 7.32594L48.0838 5.19694C46.6681 3.77762 44.5446 3.20313 42.1177 3.20312C37.6685 3.20312 34.4326 6.71766 34.4326 11.1446C34.4326 15.9433 37.7359 19.0861 42.5559 19.0861C44.8817 19.0861 47.1063 18.2075 48.3872 16.5516L47.1063 14.5916Z" fill="#0C0C22"/>
<path d="M54.9357 18.7482L63.6994 7.42732V18.7482H66.396V3.54106H63.6994L54.9357 14.8619V3.54106H52.2392V18.7482H54.9357Z" fill="#0C0C22"/>
<path d="M71.2979 18.7482H73.9944V6.07558H80.9043V3.54106H71.2979V18.7482Z" fill="#0C0C22"/>
<path d="M85.0268 18.7482H87.7233V7.66388L93.1838 14.7267H93.2849L98.5431 7.66388V18.7482H101.24V3.54106H98.8465L93.3186 11.077L87.4873 3.54106H85.0268V18.7482Z" fill="#0C0C22"/>
<path d="M107.542 6.75145C108.755 6.10937 109.868 5.63626 111.722 5.63626C114.721 5.63626 115.16 7.59629 115.16 10.4349C114.148 9.69149 112.564 9.45493 111.385 9.45493C108.115 9.45493 105.654 11.1784 105.654 14.2874C105.654 17.2275 107.542 18.9847 110.306 18.9847C112.8 18.9847 114.25 17.9371 115.16 16.7881V18.7482H117.721V9.42114C117.721 5.46729 116.205 3.20313 111.89 3.20313C110.003 3.20313 108.182 3.74382 106.834 4.58866L107.542 6.75145ZM111.25 16.5516C109.497 16.5516 108.519 15.6054 108.519 14.1522C108.519 12.395 110.137 11.6515 111.755 11.6515C113.07 11.6515 114.216 11.9895 115.16 12.6653V14.5916C114.384 15.504 113.238 16.5516 111.25 16.5516Z" fill="#0C0C22"/>
<path d="M41.6318 26.1186H40.5039L39.2148 29.651C39.1157 29.9485 39.0289 30.2335 38.9545 30.5062C38.843 30.2211 38.7438 29.9485 38.6199 29.6634L36.9838 26.1186H35.7939L38.4712 31.6961L38.3472 31.9936C37.9754 32.886 37.6283 33.2578 37.1573 33.2578C36.9342 33.2578 36.7235 33.1586 36.5376 33.0719L36.2154 33.8279C36.5128 34.0263 36.8475 34.175 37.2689 34.175C38.0621 34.175 38.5827 33.6916 39.4007 31.6961L41.6318 26.1186Z" fill="#0C0C22"/>
<path d="M46.8401 26.1186H45.8485V28.6594C45.6006 28.833 45.1296 29.0065 44.5719 29.0065C43.8158 29.0065 43.3696 28.5851 43.3696 27.6927V26.1186H42.3161V27.8042C42.3161 29.242 42.9606 29.9361 44.2992 29.9361C44.9189 29.9361 45.4767 29.7626 45.8485 29.5271V31.6961H46.8401V26.1186Z" fill="#0C0C22"/>
<path d="M53.0301 30.3079C52.6707 30.6426 52.0386 30.8905 51.3197 30.8905C50.229 30.8905 49.4605 30.2707 49.3738 29.2172H53.6623C53.6994 29.0437 53.7242 28.8206 53.7242 28.5479C53.7242 27.011 52.5715 25.9946 51.1338 25.9946C49.2994 25.9946 48.2583 27.2837 48.2583 28.9073C48.2583 30.6673 49.4357 31.82 51.2453 31.82C51.989 31.82 52.7946 31.5845 53.34 31.0888L53.0301 30.3079ZM51.0842 26.9242C52.051 26.9242 52.6459 27.4944 52.6955 28.4116H49.3118C49.4233 27.5563 50.0679 26.9242 51.0842 26.9242Z" fill="#0C0C22"/>
<path d="M59.3827 22.896C58.8126 23.6397 58.0441 23.2926 56.7427 23.8504C54.9703 24.594 54.6728 26.7011 54.6728 28.3496C54.6728 30.4938 55.8131 31.82 57.6227 31.82C59.3207 31.82 60.4858 30.5186 60.4858 28.9569C60.4858 27.2837 59.4943 26.1805 57.8954 26.1805C56.9534 26.1805 56.0486 26.7011 55.6892 27.482H55.6644C55.7387 26.4408 56.0362 25.2633 57.0773 24.7924C58.3044 24.2346 59.234 24.594 59.9157 23.6769L59.3827 22.896ZM55.7263 28.5355C55.8999 27.8166 56.594 27.1101 57.6475 27.1101C58.8002 27.1101 59.4323 27.9158 59.4323 29.0065C59.4323 30.0476 58.6886 30.8905 57.5979 30.8905C56.4948 30.8905 55.7263 29.9733 55.7263 28.5355Z" fill="#0C0C22"/>
<path d="M65.9984 31.6961H66.9899V26.1186H65.9984V28.4116H62.8998V26.1186H61.9082V31.6961H62.8998V29.3411H65.9984V31.6961Z" fill="#0C0C22"/>
<path d="M68.7833 31.6961H70.5805C72.3281 31.6961 72.8982 30.6921 72.8982 29.713C72.8982 28.7214 72.4025 27.7918 70.692 27.7918H69.7748V26.1186H68.7833V31.6961ZM73.9642 31.6961H74.9557V26.1186H73.9642V31.6961ZM70.5061 28.7214C71.4605 28.7214 71.8447 29.0809 71.8447 29.7502C71.8447 30.4071 71.4853 30.7665 70.4937 30.7665H69.7748V28.7214H70.5061Z" fill="#0C0C22"/>
<path d="M77.7272 31.6961L80.9497 27.5439V31.6961H81.9413V26.1186H80.9497L77.7272 30.2707V26.1186H76.7356V31.6961H77.7272ZM77.5288 23.2678C77.5288 24.247 78.1858 25.0031 79.4128 25.0031C80.5283 25.0031 81.2472 24.247 81.2472 23.2678H80.3176C80.268 23.9371 79.9582 24.247 79.4128 24.247C78.8179 24.247 78.508 23.9371 78.4584 23.2678H77.5288Z" fill="#0C0C22"/>
<path d="M86.5277 31.6961H91.4855V33.0595H92.4151V30.7665H91.4855V26.1186H90.494V30.7665H87.5193V26.1186H86.5277V31.6961Z" fill="#0C0C22"/>
<path d="M97.8876 30.3079C97.5282 30.6426 96.896 30.8905 96.1771 30.8905C95.0864 30.8905 94.318 30.2707 94.2312 29.2172H98.5197C98.5569 29.0437 98.5817 28.8206 98.5817 28.5479C98.5817 27.011 97.429 25.9946 95.9912 25.9946C94.1568 25.9946 93.1157 27.2837 93.1157 28.9073C93.1157 30.6673 94.2932 31.82 96.1028 31.82C96.8465 31.82 97.6521 31.5845 98.1975 31.0888L97.8876 30.3079ZM95.9417 26.9242C96.9084 26.9242 97.5034 27.4944 97.5529 28.4116H94.1692C94.2808 27.5563 94.9253 26.9242 95.9417 26.9242Z" fill="#0C0C22"/>
<path d="M104.017 31.6961H105.009V26.1186H104.017V28.4116H100.918V26.1186H99.9269V31.6961H100.918V29.3411H104.017V31.6961Z" fill="#0C0C22"/>
<path d="M106.095 27.1101H108.141V31.6961H109.132V27.1101H111.177V26.1186H106.095V27.1101Z" fill="#0C0C22"/>
<path d="M112.261 34.175H113.252V31.4358C113.649 31.6961 114.232 31.82 114.827 31.82C116.574 31.82 117.727 30.5186 117.727 28.8206C117.727 27.1721 116.735 25.9946 115.149 25.9946C114.38 25.9946 113.637 26.3293 113.252 26.7755V26.1186H112.261V34.175ZM114.864 26.9242C116.016 26.9242 116.673 27.7299 116.673 28.8578C116.673 30.0352 115.93 30.8905 114.74 30.8905C114.207 30.8905 113.748 30.7913 113.252 30.4566V27.6927C113.599 27.2589 114.207 26.9242 114.864 26.9242Z" fill="#0C0C22"/>
<path d="M13.21 1.05644C13.21 0.472986 13.6829 0 14.2664 0H22.718C23.3014 0 23.7744 0.472986 23.7744 1.05644V9.508C23.7744 10.0915 23.3014 10.5644 22.718 10.5644H14.2664C13.6829 10.5644 13.21 10.0915 13.21 9.508V1.05644Z" fill="#1E74F8"/>
<path d="M11.6242 0C12.2077 0 12.6807 0.472987 12.6807 1.05644L12.6807 9.508C12.6807 10.0915 12.2077 10.5644 11.6242 10.5644C11.3653 10.5644 11.1282 10.4713 10.9444 10.3167L10.8159 10.1883L2.42613 1.80395L2.42564 1.80346C2.23446 1.61229 2.11621 1.34817 2.11621 1.05644C2.11621 0.472987 2.5892 0 3.17266 0H11.6242Z" fill="#1E74F8"/>
<path d="M14.335 11.1997C13.7697 11.1997 13.3115 11.6602 13.3115 12.2284V21.8976C13.3115 22.4657 13.7697 22.9262 14.335 22.9262C14.6164 22.9262 14.8713 22.8121 15.0563 22.6273L15.0918 22.59L19.5555 17.7966C19.7444 17.6099 19.8615 17.3502 19.8615 17.063C19.8615 16.7899 19.7556 16.5417 19.5829 16.3576L19.5718 16.3458L15.0895 11.5334L15.0586 11.501C14.8734 11.3148 14.6176 11.1997 14.335 11.1997Z" fill="#1E74F8"/>
<circle cx="19.0204" cy="27.6776" r="5.81045" fill="#1E74F8"/>
<path d="M11.4331 33.4894C5.122 33.4894 0.00585938 28.4757 0.00585938 22.2911C0.00585938 16.1064 5.122 11.0928 11.4331 11.0928C12.0068 11.0928 12.4719 11.5486 12.4719 12.1108V32.4714C12.4719 33.0336 12.0068 33.4894 11.4331 33.4894Z" fill="#1E74F8"/>
</svg>
