<svg width="54" height="50" viewBox="0 0 54 50" fill="none" xmlns="http://www.w3.org/2000/svg">
<circle cx="25" cy="25" r="25" fill="#1E74F8"/>
<path d="M25.332 10.6495C25.332 10.1139 25.7662 9.67969 26.3018 9.67969H34.06C34.5956 9.67969 35.0297 10.1139 35.0297 10.6495V18.4076C35.0297 18.9432 34.5956 19.3774 34.06 19.3774H26.3018C25.7662 19.3774 25.332 18.9432 25.332 18.4076V10.6495Z" fill="white"/>
<path d="M23.8764 9.67969C24.412 9.67969 24.8461 10.1139 24.8461 10.6495L24.8461 18.4076C24.8461 18.9432 24.412 19.3774 23.8764 19.3774C23.6387 19.3774 23.421 19.2919 23.2524 19.15L23.1344 19.0321L15.4329 11.3356L15.4325 11.3352C15.257 11.1597 15.1484 10.9173 15.1484 10.6495C15.1484 10.1139 15.5826 9.67969 16.1182 9.67969H23.8764Z" fill="white"/>
<path d="M26.3652 19.959C25.8464 19.959 25.4258 20.3817 25.4258 20.9032V29.7792C25.4258 30.3007 25.8464 30.7234 26.3652 30.7234C26.6236 30.7234 26.8576 30.6186 27.0274 30.449L27.06 30.4148L31.1575 26.0146C31.3308 25.8433 31.4384 25.6049 31.4384 25.3412C31.4384 25.0906 31.3412 24.8627 31.1827 24.6937L31.1724 24.6829L27.0579 20.2653L27.0295 20.2355C26.8595 20.0647 26.6247 19.959 26.3652 19.959Z" fill="white"/>
<circle cx="30.6658" cy="35.0857" r="5.33374" fill="white"/>
<path d="M23.7045 40.4224C17.9112 40.4224 13.2148 35.8201 13.2148 30.1428C13.2148 24.4656 17.9112 19.8633 23.7045 19.8633C24.2312 19.8633 24.6581 20.2817 24.6581 20.7978V39.4879C24.6581 40.004 24.2312 40.4224 23.7045 40.4224Z" fill="white"/>
</svg>
