<svg width="40" height="40" viewBox="0 0 40 40" fill="none" xmlns="http://www.w3.org/2000/svg">
<path d="M20 4C11.164 4 4 11.164 4 20C4 28.836 11.164 36 20 36C28.836 36 36 28.836 36 20C36 11.164 28.836 4 20 4ZM28.4813 25.2893L25.9907 25.324C25.9907 25.324 25.4533 25.4293 24.7507 24.944C23.8187 24.304 22.94 22.6387 22.2547 22.8547C21.56 23.076 21.5813 24.5747 21.5813 24.5747C21.5813 24.5747 21.5867 24.8387 21.428 25.0107C21.256 25.196 20.9187 25.1773 20.9187 25.1773H19.8027C19.8027 25.1773 17.3413 25.3813 15.172 23.12C12.8093 20.6547 10.7213 15.7893 10.7213 15.7893C10.7213 15.7893 10.5987 15.4827 10.7293 15.3253C10.8773 15.152 11.276 15.1467 11.276 15.1467L13.9427 15.1333C13.9427 15.1333 14.1933 15.1773 14.3747 15.3107C14.5227 15.42 14.6067 15.6253 14.6067 15.6253C14.6067 15.6253 15.0373 16.7173 15.6093 17.7067C16.724 19.6347 17.2413 20.0573 17.62 19.8507C18.172 19.5493 18.0067 17.1253 18.0067 17.1253C18.0067 17.1253 18.0173 16.2453 17.7293 15.8533C17.5053 15.548 17.084 15.4573 16.9 15.4347C16.7493 15.4147 16.9947 15.0653 17.3147 14.908C17.7947 14.6733 18.6427 14.66 19.644 14.6693C20.424 14.6773 20.6493 14.7253 20.9533 14.8C21.8733 15.0227 21.5613 15.8813 21.5613 17.9413C21.5613 18.6013 21.4427 19.5293 21.9173 19.8347C22.1227 19.9667 22.6227 19.8547 23.8693 17.7293C24.4627 16.7213 24.9067 15.5373 24.9067 15.5373C24.9067 15.5373 25.004 15.3267 25.1547 15.236C25.3093 15.1427 25.5173 15.172 25.5173 15.172L28.324 15.1547C28.324 15.1547 29.1667 15.0533 29.304 15.436C29.448 15.836 28.9893 16.7707 27.8427 18.3C25.96 20.812 25.7507 20.5787 27.3147 22.032C28.808 23.42 29.116 24.0947 29.168 24.18C29.7853 25.208 28.4813 25.2893 28.4813 25.2893Z" fill="white"/>
</svg>
