<svg width="40" height="40" viewBox="0 0 40 40" fill="none" xmlns="http://www.w3.org/2000/svg">
<path d="M35.97 10.3098C35.5867 8.8765 34.4567 7.7465 33.0233 7.36317C30.4233 6.6665 20 6.6665 20 6.6665C20 6.6665 9.57668 6.6665 6.97668 7.36317C5.54334 7.7465 4.41334 8.8765 4.03001 10.3098C3.33334 12.9098 3.33334 19.9998 3.33334 19.9998C3.33334 19.9998 3.33334 27.0898 4.03001 29.6898C4.41334 31.1232 5.54334 32.2532 6.97668 32.6365C9.57668 33.3332 20 33.3332 20 33.3332C20 33.3332 30.4233 33.3332 33.0233 32.6365C34.4583 32.2532 35.5867 31.1232 35.97 29.6898C36.6667 27.0898 36.6667 19.9998 36.6667 19.9998C36.6667 19.9998 36.6667 12.9098 35.97 10.3098ZM16.6667 25.7732V14.2265L26.6667 19.9998L16.6667 25.7732Z" fill="white"/>
</svg>
